<svg width="45" height="45" viewBox="0 0 45 45" fill="none" xmlns="http://www.w3.org/2000/svg">
<path d="M22.5 0C10.08 0 0 10.08 0 22.5C0 34.92 10.08 45 22.5 45C34.92 45 45 34.92 45 22.5C45 10.08 34.92 0 22.5 0ZM22.5 6.75C26.235 6.75 29.25 9.765 29.25 13.5C29.25 17.235 26.235 20.25 22.5 20.25C18.765 20.25 15.75 17.235 15.75 13.5C15.75 9.765 18.765 6.75 22.5 6.75ZM22.5 38.7C16.875 38.7 11.9025 35.82 9 31.455C9.0675 26.9775 18 24.525 22.5 24.525C26.9775 24.525 35.9325 26.9775 36 31.455C33.0975 35.82 28.125 38.7 22.5 38.7Z" fill="black"/>
</svg>
