<svg width="37" height="32" viewBox="0 0 37 32" fill="none" xmlns="http://www.w3.org/2000/svg">
<path d="M11.1 25.6C9.065 25.6 7.4185 27.04 7.4185 28.8C7.4185 30.56 9.065 32 11.1 32C13.135 32 14.8 30.56 14.8 28.8C14.8 27.04 13.135 25.6 11.1 25.6ZM0 0V3.2H3.7L10.36 15.344L7.8625 19.264C7.5665 19.712 7.4 20.24 7.4 20.8C7.4 22.56 9.065 24 11.1 24H33.3V20.8H11.877C11.618 20.8 11.4145 20.624 11.4145 20.4L11.47 20.208L13.135 17.6H26.9175C28.305 17.6 29.526 16.944 30.155 15.952L36.778 5.568C36.926 5.344 37 5.072 37 4.8C37 3.92 36.1675 3.2 35.15 3.2H7.7885L6.0495 0H0ZM29.6 25.6C27.565 25.6 25.9185 27.04 25.9185 28.8C25.9185 30.56 27.565 32 29.6 32C31.635 32 33.3 30.56 33.3 28.8C33.3 27.04 31.635 25.6 29.6 25.6Z" fill="black"/>
</svg>
